<?xml version="1.0" encoding="UTF-8"?>
<svg id="Ebene_1" xmlns="http://www.w3.org/2000/svg" version="1.1" viewBox="0 0 934.4 343.8">
  <!-- Generator: Adobe Illustrator 29.7.1, SVG Export Plug-In . SVG Version: 2.1.1 Build 8)  -->
  <defs>
    <style>
      .st0 {
        fill: #fff;
      }

      .st0, .st1 {
        fill-rule: evenodd;
      }

      .st1 {
        fill: #f23568;
      }
    </style>
  </defs>
  <path id="LOGIT" class="st0" d="M202.9,258.5v-37.5h-104.1V56h-43.8v202.5h147.9ZM423.5,157.5c.1-58-46.9-105.1-104.9-105.2s-105.1,46.9-105.2,104.9c-.1,58,46.9,105.1,104.9,105.2h0c57.8,0,105.2-46.9,105.2-104.9ZM318.3,95.2c33.8,0,61.4,28.4,61.4,62.3s-27.6,62-61.4,62-62-28.2-62-62,28.2-62.3,62-62.3ZM641.3,151.5c-35,0-75.1-.3-103.8-.3v37.5c0,.3,2.6.3,8,.3,11.4,0,32.1-.3,41.2-.3h4.5c-8.2,19.3-31,30.7-53.7,30.7-33.9,0-61.4-27.5-61.4-61.4s27.5-61.4,61.4-61.4c22.7,0,42.1,11.7,52.6,29.9,19.9-10,21.3-10.8,39.2-19.9-18.2-31.6-52.6-53.5-91.8-53.5-57.7,0-104.9,47.2-104.9,104.9s47.2,105.2,104.9,105.2c39.5,0,74.8-21.9,92.1-54.6,10.6-13.6,11.7-51.1,11.7-57.1h0ZM664.9,259.9h44.6V56.9h-44.6v203ZM800.2,259.9h44.6V94.7h64v-37.6h-173.1v37.3h64.5v165.5h0Z"/>
  <path id="Rechteck_1" class="st1" d="M914.7,283.1h-249v22.2h249v-22.2h0Z"/>
</svg>